<mxfile host="app.diagrams.net" modified="2024-05-30T10:31:28.739Z" agent="Mozilla/5.0 (Windows NT 10.0; Win64; x64) AppleWebKit/537.36 (KHTML, like Gecko) Chrome/125.0.0.0 Safari/537.36" version="24.4.4" etag="lUiX6HWSFWxNbBeep8YC" type="github">
  <diagram name="Page-1" id="t1qKiGXEgo12qIS3sf51">
    <mxGraphModel>
      <root>
        <mxCell id="0" />
        <mxCell id="1" parent="0" />
      </root>
    </mxGraphModel>
  </diagram>
</mxfile>
